<svg width="24" height="24" viewBox="0 0 24 24" fill="none" xmlns="http://www.w3.org/2000/svg">
<path d="M12 21C16.9706 21 21 16.9706 21 12C21 7.02944 16.9706 3 12 3C7.02944 3 3 7.02944 3 12C3 16.9706 7.02944 21 12 21Z" stroke="#4E555C" stroke-width="1.6" stroke-linecap="round" stroke-linejoin="round"/>
<path d="M9.2002 9C9.29909 9 9.39576 9.02932 9.47798 9.08427C9.56021 9.13921 9.62429 9.2173 9.66214 9.30866C9.69998 9.40002 9.70988 9.50056 9.69059 9.59755C9.6713 9.69454 9.62368 9.78363 9.55375 9.85355C9.48382 9.92348 9.39473 9.9711 9.29774 9.99039C9.20075 10.0097 9.10022 9.99978 9.00885 9.96194C8.91749 9.9241 8.8394 9.86001 8.78446 9.77779C8.72952 9.69556 8.7002 9.59889 8.7002 9.5C8.7002 9.36739 8.75287 9.24021 8.84664 9.14645C8.94041 9.05268 9.06759 9 9.2002 9" stroke="#4E555C" stroke-width="1.6" stroke-linecap="round" stroke-linejoin="round"/>
<path d="M15.5 9C15.5989 9 15.6956 9.02932 15.7778 9.08427C15.86 9.13921 15.9241 9.2173 15.9619 9.30866C15.9998 9.40002 16.0097 9.50056 15.9904 9.59755C15.9711 9.69454 15.9235 9.78363 15.8536 9.85355C15.7836 9.92348 15.6945 9.9711 15.5975 9.99039C15.5006 10.0097 15.4 9.99978 15.3087 9.96194C15.2173 9.9241 15.1392 9.86001 15.0843 9.77779C15.0293 9.69556 15 9.59889 15 9.5C15 9.36739 15.0527 9.24021 15.1464 9.14645C15.2402 9.05268 15.3674 9 15.5 9" stroke="#4E555C" stroke-width="1.6" stroke-linecap="round" stroke-linejoin="round"/>
<path d="M17 14.3999C16.5384 15.3017 15.8257 16.0607 14.9422 16.5914C14.0588 17.1221 13.0397 17.4032 12 17.4032C10.9603 17.4032 9.94125 17.1221 9.0578 16.5914C8.17435 16.0607 7.46163 15.3017 7 14.3999" stroke="#4E555C" stroke-width="1.6" stroke-linecap="round" stroke-linejoin="round"/>
</svg>
